<svg width="64" height="64" viewBox="0 0 64 64" fill="none" xmlns="http://www.w3.org/2000/svg">
<path d="M62 32C62 18.9 53.7 7.79995 42 3.69995V60.2999C53.7 56.2 62 45.1 62 32Z" fill="#ED4C5C"/>
<path d="M2 32C2 45.1 10.4 56.2 22 60.2999V3.69995C10.4 7.79995 2 18.9 2 32Z" fill="#75A843"/>
<path d="M42 3.7C38.9 2.6 35.5 2 32 2C28.5 2 25.1 2.6 22 3.7V60.3C25.1 61.4 28.5 62 32 62C35.5 62 38.9 61.4 42 60.3V3.7Z" fill="white"/>
<path d="M40.7 31.7C40.6 31.4 40.5 31.8 40.5 31.9C40.5 31.6 40.4 31.4 40.2 31.1C39.9 31.4 39.8 31.8 39.8 32.2C39.7 31.9 39.6 31.6 39.3 31.5C39.5 31.8 39.4 32 39.4 32.3C39.4 32.7 39.7 33 39.7 33.4C39.7 33.8 39.5 34.1 39.2 34.4V34.1C38.2 34.5 38.4 35 38.4 35.9C38.4 36.8 37.9 36.6 37.3 37.1C37.4 36.9 37.4 36.6 37.3 36.4C37.3 37 36.5 37 36.4 37.5C36.3 37.7 36.4 38.1 36.1 38.2C35.9 38.3 35.6 38.5 35.6 38.7C35.4 38.6 35.2 38.6 34.9 38.6C35 38.5 35.1 38.5 35.2 38.4C34.2 37.9 33.9 39 33 39.1C32.7 39.1 32 38.7 32 39.1C32.9 39.1 33.3 39.9 34 39.9C34.6 39.9 35.1 39.4 35.7 39.4C35.6 39.4 35.3 39.2 35 39.2C35.5 38.9 35.8 38.3 36.4 38.3C37.4 38.3 37.9 38.1 38.2 37.1C38.1 37.1 38 37.1 37.9 37.2C37.9 36.8 38.3 36.3 38.7 36.1C39.7 35.9 39.6 35.1 40.2 34.4C40 34.4 39.8 34.5 39.6 34.7C39.6 34.1 39.5 33.5 40 33.1C41 32.6 40.9 32.4 40.7 31.7ZM23.3 31.7C23.1 32.5 23 32.7 23.8 33.2C24.4 33.6 24.2 34.2 24.2 34.8C24 34.6 23.9 34.5 23.6 34.5C24.2 35.1 24.1 36 25.1 36.2C25.4 36.4 25.9 36.9 25.9 37.3C25.8 37.3 25.7 37.2 25.6 37.2C25.9 38.2 26.4 38.4 27.4 38.4C28 38.4 28.3 39 28.8 39.3C28.5 39.3 28.2 39.4 28.1 39.5C28.7 39.5 29.2 40.1 29.8 40C30.5 40 31 39.2 31.8 39.2C31.8 38.8 31.1 39.2 30.8 39.2C30 39 29.7 38 28.6 38.4C28.7 38.5 28.8 38.6 28.9 38.6C28.7 38.6 28.4 38.5 28.2 38.7C28.1 38.5 27.9 38.3 27.7 38.2C27.5 38 27.5 37.7 27.4 37.5C27.2 37 26.5 36.9 26.5 36.4C26.4 36.6 26.4 36.9 26.5 37.1C25.9 36.6 25.4 36.8 25.4 35.9C25.4 35.1 25.6 34.5 24.6 34.1V34.4C24.3 34.1 24.1 33.9 24.1 33.4C24.1 33 24.5 32.7 24.4 32.3C24.4 32 24.3 31.8 24.5 31.5C24.2 31.6 24.1 31.9 24 32.2C24 31.8 23.9 31.4 23.6 31.1C23.5 31.3 23.4 31.6 23.3 31.9C23.4 31.7 23.3 31.4 23.3 31.7Z" fill="#75A843"/>
<path d="M34.7 37.7001C34.5 37.7001 34.4 37.5001 34.3 37.4001C34.3 37.2001 35.1 37 35.2 37V36.8C33.9 37.2 30 37.5 29.2 36.1C28.8 36.7 28.1 36.3 27.4 35.8C27.5 36 27.9 37.0001 27.9 36.9001C28.1 37.0001 29.4 37.3 29.4 37.6L29.1 37.9001C31.2 38.6001 32.5 38.8001 34.7 37.7001Z" fill="#428BC1"/>
<path d="M33.4 37.7C33.5 37.6 33.5 37.5 33.5 37.3L33.4 37C33.6 36.8 33.4 36.3 33.1 36.4C32.9 36.5 33 36.5 32.8 36.4C32.7 36.4 32.7 36.3 32.6 36.3H30.8C30.6 36.3 30.6 36.2 30.4 36.2C30.2 36.1 30.1 36.3 30 36.4C30 36.6 30.1 36.6 30.1 36.7C30.1 36.8 30 36.9 30 37.1C30 37.3 30.1 37.4 30.2 37.5C29.8 37.8 30.2 38.3 30.6 38C30.7 38.2 31 38.2 31.3 38.2H32.4C32.6 38.2 33 38.3 33.1 38C33.4 38.5 33.8 37.9 33.4 37.7Z" fill="#ED4C5C"/>
<path d="M36.6 35.1C35.8 34.1 35.4 35.6 34.5 35.5C34.7 34.3 32.9 34.7 32.4 35C32.5 34.9 32.6 34.7 32.7 34.5C32.3 34.5 31.8 34.7 31.5 34.4C30.9 34 30.1 33.8 29.6 34.5C29.2 33.9 28.1 33.3 27.5 33.9C27.5 33.3 26.9 32.4 26.2 32.5C25.4 32.6 25.7 33.6 26.1 34C26.4 34.3 26.8 34.4 27.2 34.4C27.2 34.6 27.3 34.7 27.4 34.8C27.9 35.2 28.9 35.3 29.4 34.9C29.4 35.9 31.4 35.9 31.9 35.4C31.7 35.9 31.5 36.9 32.2 36.9C32.8 36.9 32.6 36.3 33.1 36.1C33.5 35.9 34 35.8 34.4 36C35.1 36.4 37.3 36.3 36.6 35.1Z" fill="#428BC1"/>
<path d="M28.4 32.6C28.3 32.4 28.1 32.2 28.1 32.2C27.7 32.3 27.7 32 27.6 31.7C27.5 31.2 26.8 31 26.8 30.6C26.8 30.2 27.2 29.8 26.9 29.4C26.6 29 26.1 28.8 26.1 29C26 29.2 26.5 29.2 26.5 29.7C26.5 30.3 25.9 30.8 26.6 31.3C27 31.9 27 33 27.7 33C28 33 28.3 32.9 28.4 32.6Z" fill="#75A843"/>
<path d="M29.9 32.1C29.7 31.7 29.9 31.1 29.5 30.8C29 30.4 28 31.2 27.9 30.2C27.9 30 29 28.8 29.2 28.7C29.5 28.3 29.4 27.6 29.1 27.4C28.7 27.2 28.6 27.4 28.3 27.8C28.4 27.9 28.8 28.1 28.8 28.2C28.5 28.9 27.6 29 27.4 29.7C27.2 30.2 27.3 31 27.8 31.3C28.1 31.5 28.3 31.5 28.6 31.5C29.5 31.4 29 31.6 29.1 31.8C29.1 32 29.4 32.7 29.9 32.1ZM26.9 27.2C26.9 27.8 27.5 27.7 27.9 27.6C27.9 27.4 27.9 27.2 28 27C27.8 27.1 27.5 27.1 27.4 27C27.1 26.8 28.1 26.4 28 26.4C28 26.4 27 26.9 27.4 26.3C27.5 26.1 27.7 25.9 27.8 25.7C27.9 25.5 27.5 25.7 27.5 25.7C27.4 25.7 27.3 25.7 27.2 25.8C26.6 26.3 26.8 26.6 26.9 27.2Z" fill="#75A843"/>
<path d="M37.5 27.2C37 26.5 35.1 24.2 32.4 24C32.1 24 31.3 24.3 31 24.4C30.1 25 32 25.5 32.1 25.9C32.1 26.1 32.2 26.2 32.2 26.4C31.9 25.9 31.6 25.6 31.5 25.4C31 25.6 30.2 25.3 30.1 24.8C30 25 30 25.1 29.8 25.3C29.8 25 29.7 25 29.6 24.8C29.6 25.1 29.6 25.5 29.3 25.6C29.4 25.4 29.3 25.2 29.2 25C29.2 25.3 29.2 25.5 29 25.7C29.1 25.5 28.9 25.4 28.9 25.2C28.8 26 27.7 26.3 28.8 26.6C29.2 26.7 29.4 26.6 29.8 26.8C29.9 26.9 30.1 27.1 30.1 27C30.1 27.1 29.7 27.5 30 27.6C29.9 27.7 29.6 28.3 29.6 28.3C29.9 28.3 29.7 28.5 29.5 28.7C29.2 29.2 29.5 29.7 29.6 30.3C29.6 30.1 29.9 30.4 29.9 30.7C29.9 31.1 30.3 31.3 30.4 31.6C29.9 31.1 29.8 31.6 30.4 31.9C29.9 31.9 29.8 32.2 30.3 32.4C29.1 32.4 30.1 32.9 30.3 33C31.1 33.2 31.7 32.6 31.7 32.5C31.7 32.5 33.3 34.1 33.4 34.1C33.5 34.1 34.3 33.7 34.5 33.9C34.7 34.2 34.9 33.9 35.1 34C35.3 34.2 36.1 34 36.3 33.9C36.4 33.9 37.4 33.7 37.2 33.5C36.7 33.1 36.1 32.7 35.6 32.3C35.1 31.9 34.6 31.6 34.2 31.2C34 31 34 30.6 33.9 30.3C34.8 31.2 35.7 31.7 35.6 30C36.2 30.5 37.4 33.3 37.5 33.3C37.8 33.3 37.5 30.3 37.5 30C37.9 30.4 37.9 33.7 38 33.7C38.5 33.8 39.2 29.4 37.5 27.2Z" fill="#89664C"/>
<path d="M30.3 32.3C30.2 32.3 29.7001 31.6 29.7001 31.5C30.0001 32.7 28.8001 32 29.1 31.5C28.7 31.4 27.7 32 28.1 32.6C27.9 33 29.5 32.7 29.6 32.5C30.0001 33.4 31 32.4 30.3 32.3ZM35 35.3C35.5 34.6 33.4 34.4 33.6 33.6C33.3 33.8 32.9 34.5 32.5 34.3C32.3 34.2 31.5 34.7 31.9 35C31.9 34.6 32.1001 34.9 32.4001 34.8C32.3001 35.1 32 35.4 32.5 35.6C32.3 35 33.1 35.3 33 35C32.8 34.8 33.7 34.8 33.8 34.8C34.1 34.8 35.1001 35.1 34.7001 35.4C34.7001 35.4 34.9 35.4 35 35.3ZM28.3 26.7C28.2 26.9 27.8 27.2 27.8 27.5C27.8 27.7 28.3 28.2 28.5 27.9C27.9 27.5 28.6 27.2 28.9 27.2C29 27.2 29 27.4 29 27.4C29.1 27.5 29.9 27.2 29.8 27C29.9 26.6 28.6 26.6 28.3 26.7Z" fill="#FFCE31"/>
</svg>
