<svg width="64" height="64" viewBox="0 0 64 64" fill="none" xmlns="http://www.w3.org/2000/svg">
<path d="M12 12H32V32H12V12Z" fill="#2A5F9E"/>
<path d="M18.9001 8.09998V14H11.6001L26.0001 32H32.0001V24.5L18.9001 8.09998Z" fill="white"/>
<path d="M32 2V32H2C2 48.6 15.4 62 32 62C48.6 62 62 48.6 62 32C62 15.4 48.6 2 32 2Z" fill="#42ADE2"/>
<path d="M11 18.9H5C3.1 22.9 2 27.3 2 32H14V13.9H11V18.9Z" fill="white"/>
<path d="M32 27.1L19 11H13L30 32H32V27.1Z" fill="#ED4C5C"/>
<path d="M18.9 5V11H11V14H32V2C27.3 2 22.9 3.1 18.9 5Z" fill="white"/>
<path d="M32 5H18.9C12.9 7.9 7.9 12.9 5 18.9V32H11V11H32V5Z" fill="#ED4C5C"/>
<path d="M39.1001 26.9V40C39.1001 44.3 46.9001 46.9 46.9001 46.9C46.9001 46.9 54.7001 44.3 54.7001 40V26.9H39.1001Z" fill="white"/>
<path d="M54.7001 32V26.9H39.1001V32H45.8001V37.4H39.1001V39.6H45.8001V46.5L46.9001 46.9L48.0001 46.5V39.6H54.7001V37.4H48.0001V32H54.7001Z" fill="#ED4C5C"/>
<path d="M54.2 30.6C54.2 30.5 53.9 30.5 53.8 30.3C53.7 29.8 53.6 29.6 53.3 29.6C53 29.5 52.9 29.6 52.9 29.6C52.8 29.7 52.4 29.7 52.2 29.7C52 29.7 51.5 29.2 51.5 29.1C51.8 29.1 52 29 52.3 28.6C52.7 28.2 52.9 28.4 52.9 28.4C52.7 28.7 53 28.7 53 28.7C53.5 28.5 52.9 27.6 52.8 27.6C52.2 28.5 52.2 27.5 51.3 27.4C50.8 27.4 49.8 27.6 49.4 27.8C49 27.9 47.9 27.6 47.3 27.7C45.8 27.9 45.8 27.1 45.8 27.1C45.8 27.1 44.9 27.9 46.7 28.7C46.7 28.7 46 28 49.4 28.2C50.2 28.1 51.5 27.5 51.9 27.9C51.9 27.9 51.9 28.2 52.1 28.2C52.1 28.2 52.1 28.5 51.1 28.4C48.6 28.3 45.2 29.5 44.7 28.6C44.4 28.1 45.4 27.9 45.4 27.9C45.2 27.6 44.7 27.8 44.7 27.8C44.7 27.5 44.6 27.1 44.6 27.1C44.1 27.2 43.9 27.5 43.9 27.5C43.9 27.1 43.4 26.9 43.4 26.9C43.6 27.1 43.5 28.9 42.2 28.4C42.2 28.4 41.5 28 41.3 28C41.1 28 39.8 28.6 40.1 28.9C40.1 28.9 41.1 28.3 41.6 28.8C42.2 29.4 43.1 29.4 43.1 29.4C43 29.7 42.6 30.5 42.6 30.5C42.6 30.5 42.1 30.7 41.8 30.9C41.8 30.9 40.1 29.5 40 30.9C40 31.2 41.4 31.7 42.4 31.3C43 31.2 43.2 30.9 43.2 30.9C43.4 30.9 46 31.1 48.8 29.7C49.4 28.9 50.2 29.3 50.2 29.3C50.2 29.3 48.8 29.3 48.9 30.2C48.9 30.4 49.5 30.6 49.4 30.8C49.1 31.2 48.4 30.4 48.1 30.3C47.9 30.3 47.4 30.4 47.9 30.9C48.4 31.5 49.2 32.2 50.6 30.8C50.8 30.6 50.3 30.4 50.2 30.3C50.1 30.2 50.2 30.2 50.2 30.2C50.6 30.4 50.7 29.7 50.7 29.7C50.7 30.1 51.1 30.2 51.1 30.2C51.3 30 51.2 29.5 51.2 29.5C51.7 30.5 52.1 30.3 52.1 30.3C51.8 30.1 52 29.9 52 29.9C52.3 30.9 53.3 30 53.3 30C53.2 30.1 53.3 30.2 53.4 30.3C53.5 30.4 53.6 30.4 53.6 30.6C53.6 30.8 52.8 31 52.8 31C52.8 31 52.3 31 52.4 31.4C52.4 31.5 54.2 31.6 54.2 30.6Z" fill="#FFE62E"/>
<path d="M45.1001 44.6C45.1001 44.7 45.1001 44.7 45.1001 44.6V44.6ZM44.2001 43.6C44.2001 43.3 43.8001 42.6 43.8001 42.6C44.9001 42.7 45.3001 41.6 45.3001 41.6C45.0001 41.7 44.4001 41.4 44.4001 41.4C45.4001 41.3 45.3001 40.3 45.3001 40.3C45.1001 41 43.9001 40.9 43.9001 40.9C44.3001 40.7 44.5001 40 44.5001 40C44.4001 40.3 43.7001 40.5 43.3001 40.7C42.9001 40.9 43.1001 41.7 43.1001 41.7C43.0001 41.6 42.7001 41.2 42.7001 40.9C42.7001 40.6 42.5001 40.4 42.2001 40.4C41.9001 40.4 41.7001 40.7 41.7001 40.7L41.1001 41H41.6001C41.6001 41 41.9001 41.1 41.9001 41.4C41.9001 41.7 41.6001 42.7 42.1001 43.3C42.4001 43.7 43.6001 43.9 43.6001 43.9L44.0001 45L44.4001 44.6H45.2001C45.0001 44.5 44.2001 43.6 44.2001 43.6Z" fill="#CECECE"/>
<path d="M53.5 40.2C53.5 40.2 53.2 40.1 52.7 39.9C52.2 39.7 51.7 40.4 51.7 40.4C51.5 40.8 52.1 40.8 52.1 40.7C52.1 40.6 52.3 40.3999 52.5 40.2999C52.7 40.1999 53 40.5999 53.2 40.5999C53.5 40.6999 53.5 40.2 53.5 40.2Z" fill="#C94747"/>
<path d="M50 41.2C50 41.2 50 40.3 50.9 40.2C51.4 40.2 52.6 40.7999 52.7 41.2999C52.8 41.7999 52.4 42.2 52.1 42.4" fill="#FFE62E"/>
<path d="M53.2 33.4H54.1C53.9 33 53.1 33 52.4 33.1C52.8 33 53.3 32.8 53.4 32.8C53.2 32.7 52.4 32.1 51.3 33.2C50.3 32.2 49.4 32.7 49.2 32.8C49.3 32.8 49.8 33 50.2 33.1C49.6 33 48.8 33 48.5 33.4H49.4C49 33.6 48.8 33.6 48.7 34.1C48.7 34.1 49.2 34 49.7 33.8C49.4 33.9 49.2 34.1 49.1 34.3C49.5 34.3 49.9 34.2 50.2 34.1C50 34.3 49.9 34.6 49.9 34.7C50.1 34.7 50.3 34.5 50.5 34.3C50.4 34.7 50.4 35.2 50.5 35.3C50.7 35.2 50.8 34.9 50.9 34.7V35H51.3V34.6C51.4 34.9 51.5 35.2 51.7 35.3C51.8 35.1 51.8 34.7 51.7 34.3C51.9 34.5 52.1 34.7 52.3 34.7C52.3 34.6 52.2 34.3 52 34.1C52.3 34.2 52.7 34.4 53.1 34.3C53 34.1 52.8 34 52.5 33.8C53 33.9 53.5 34.1 53.5 34.1C53.8 33.6 53.6 33.6 53.2 33.4Z" fill="#75A843"/>
<path d="M51.1001 34.2H51.7001V37H51.1001V34.2Z" fill="#C94747"/>
<path d="M50 41.2001C49.4 41.2001 49.8999 42.6001 49.5999 42.4001C49.1999 42.2001 48.9999 43.5001 49.5999 43.9001C50.5999 44.6001 51.4 43.7001 51.2999 43.5001C51.0999 43.1001 52.2 42.9001 52.2 42.6001C52.2 41.8001 50.6 41.2001 50 41.2001ZM43.9 34.3001C43.8 34.2001 43.8 34.2001 43.9 34.3001C43.9 34.0001 43.7999 33.8001 43.5999 33.8001C43.3999 33.5001 43.1 33.7001 42.9 34.0001C42.8 34.1001 42.6999 34.2001 42.5999 34.2001C42.5999 33.3001 42.7 32.5001 43.9 33.6001C43.9 33.6001 43.9 33.2001 43.3 32.7001C42.6 32.2001 42.4 32.8001 42.3 33.6001C42.2 33.5001 41.9999 33.2001 41.5999 33.0001C40.7999 32.7001 40.6999 33.4001 40.8 34.1001C40.4999 33.7001 40.1 33.5001 39.7 34.1001C39.3 34.7001 39.5 35.0001 39.5 35.0001C40.2 33.6001 40.6 34.5001 41 35.1001C40.5 34.7001 39.9 34.4001 39.8 35.1001C39.7 35.6001 39.9 35.7001 39.9 35.7001C40 34.1001 41.1 35.8001 41.4 35.6001V35.5001C41.5 35.3001 41.4999 34.9001 41.5999 34.5001C41.8999 34.7001 42.3 35.4001 42.5 35.3001V35.2001C42.6 35.1001 42.7 34.8001 42.8 34.5001C43.2 34.4001 43.2 35.5001 43.4 35.5001C43.8 35.3001 44.5999 33.8001 44.5999 35.3001C44.5999 35.3001 44.8 35.1001 44.7 34.6001C44.6 33.9001 44.1 34.3001 43.7 34.8001C44 34.0001 44.4 33.1001 44.9 34.4001C44.9 34.4001 45.1 34.1001 44.7 33.5001C44.6 33.2001 44.2 33.6001 43.9 34.3001ZM41.4 34.2001C41.3 34.2001 41.1999 34.2001 41.0999 34.3001V34.0001C41.3999 33.7001 41.6 33.7001 41.8 33.9001C41.6 33.8001 41.5 34.0001 41.4 34.2001ZM41.2 34.6001C41.3 34.6001 41.3 34.6001 41.2 34.6001C41.3 34.6001 41.2 34.7001 41.2 34.8001C41.3 34.7001 41.3 34.7001 41.2 34.6001ZM42.7 34.3001C42.7 34.4001 42.5999 34.5001 42.5999 34.6001V34.4001L42.7 34.3001ZM42.3 33.7001C42.2 33.7001 42.2 33.7001 42.3 33.7001V33.7001ZM41.7 34.3001C41.8 34.2001 41.9 34.2001 42 34.2001C42.1 34.4001 42.0999 34.6001 42.0999 34.7001L41.7 34.3001ZM43 34.4001C43.1 34.3001 43.2 34.1001 43.2 34.1001C43.6 34.1001 43.5 34.7001 43.4 35.1001C43.3 34.8001 43.2 34.5001 43 34.4001Z" fill="#75A843"/>
<path d="M49.6001 44.0999L49.7001 43.9999C49.7001 43.8999 49.6001 43.8999 49.6001 43.8999C49.6001 43.8999 49.5001 44.0999 49.5001 43.9999C48.9001 43.5999 48.5001 45.2999 48.5001 45.2999C48.5001 45.2999 50.3001 44.5999 49.6001 44.0999ZM41.1001 35.3999L41.3001 36.7999L41.6001 36.6999L41.4001 35.2999L41.1001 35.3999ZM42.1471 36.6389L42.2701 35.0439L42.5701 35.0669L42.4461 36.6619L42.1471 36.6389ZM42.8001 36.5999L43.1001 36.6999L43.7001 35.4999L43.4001 35.3999L42.8001 36.5999Z" fill="#C94747"/>
</svg>
