<svg width="64" height="64" viewBox="0 0 64 64" fill="none" xmlns="http://www.w3.org/2000/svg">
<path d="M1.8999 32C1.8999 45.1 10.2999 56.2 21.8999 60.2999V3.69995C10.2999 7.79995 1.8999 18.9 1.8999 32Z" fill="#428BC1"/>
<path d="M61.8999 32C61.8999 18.9 53.5999 7.79995 41.8999 3.69995V60.2999C53.5999 56.2 61.8999 45.1 61.8999 32Z" fill="#ED4C5C"/>
<path d="M21.8999 60.3C24.9999 61.4 28.3999 62 31.8999 62C35.3999 62 38.7999 61.4 41.8999 60.3V3.7C38.7999 2.6 35.4999 2 31.8999 2C28.2999 2 24.9999 2.6 21.8999 3.7V60.3Z" fill="white"/>
</svg>
