<svg width="64" height="64" viewBox="0 0 64 64" fill="none" xmlns="http://www.w3.org/2000/svg">
<path d="M60.9 40C61.6 37.5 62 34.8 62 32C62 29.2 61.6 26.5 60.9 24H31.7L14.8 7.40002C10.8 10.2 7.49995 14 5.19995 18.4L19 32L5.29995 45.6C7.49995 50 10.8 53.8 14.9 56.6L31.7 40H60.9Z" fill="#699635"/>
<path d="M3.5 22.5C2.5 25.5 2 28.7 2 32C2 35.3 2.5 38.5 3.5 41.5L13.1 32L3.5 22.5Z" fill="#3E4347"/>
<path d="M18.3 58.7C22.4 60.8 27.1 62 32 62C44.3 62 54.9001 54.6 59.5 43.9H33.4001L18.3 58.7Z" fill="#428BC1"/>
<path d="M59.5 20.1C54.9001 9.4 44.3 2 32 2C27.1 2 22.4 3.2 18.3 5.3L33.4001 20.1H59.5Z" fill="#ED4C5C"/>
<path d="M60.5 22.7001C60.2001 21.8001 59.9001 20.9 59.5 20.1H33.4001L18.3 5.30005C17.6 5.60005 17 6.00005 16.3 6.40005C15.8 6.70005 15.3 7.10005 14.8 7.40005L31.7001 24H60.9001C60.8001 23.6 60.7001 23.1 60.5 22.7001Z" fill="white"/>
<path d="M5.3001 18.4C5.2001 18.6 5.1001 18.8 5.0001 19.1C4.5001 20.2 4.0001 21.3 3.6001 22.5L13.2001 32L3.6001 41.5C4.0001 42.7 4.4001 43.8 5.0001 44.9C5.1001 45.1 5.2001 45.3 5.3001 45.6L19.0001 32L5.3001 18.4Z" fill="#FFCE31"/>
<path d="M31.7001 40L14.8 56.6C15.1 56.8 15.5 57.1 15.8 57.3C16.6 57.8 17.4 58.3 18.3 58.7L33.4001 43.9H59.5C59.9001 42.9 60.3 41.9 60.7001 40.8C60.8 40.5 60.8001 40.3 60.9001 40H31.7001Z" fill="white"/>
</svg>
